<svg xmlns="http://www.w3.org/2000/svg" viewBox="0 0 512 512"><path fill="#ffffff" d="M204.3 5C104.9 24.4 24.8 104.3 5.2 203.4c-37 187 131.7 326.4 258.8 306.7 10.2-1.6 20.5-8.9 24.4-17.9 3.7-8.7 3.2-17.4-.4-24.7C283.8 451 271.9 435.3 271.9 416c0-44.2 35.8-80 80-80h78.8c52.9 0 96.1-42.9 94.7-95.8C521.5 95.1 419.9 4.6 306 5 262.5 3.8 232.9 1.7 204.3 5zm-102 156c27.6 0 50 22.4 50 50s-22.4 50-50 50-50-22.4-50-50 22.4-50 50-50zm163.7 0c27.6 0 50 22.4 50 50s-22.4 50-50 50-50-22.4-50-50 22.4-50 50-50zm189.5 63c0 17.7-14.3 32-32 32s-32-14.3-32-32 14.3-32 32-32 32 14.3 32 32zm-127 113c0 27.6-22.4 50-50 50s-50-22.4-50-50 22.4-50 50-50 50 22.4 50 50z"/></svg>
